<mxfile host="app.diagrams.net" modified="2024-04-03T13:55:08.164Z" agent="Mozilla/5.0 (Windows NT 10.0; Win64; x64) AppleWebKit/537.36 (KHTML, like Gecko) Chrome/123.0.0.0 Safari/537.36 Edg/123.0.0.0" etag="0clT_HNkQSTc62FrYkDB" version="24.2.1" type="github">
  <diagram name="Page-1" id="0783ab3e-0a74-02c8-0abd-f7b4e66b4bec">
    <mxGraphModel dx="3350" dy="1765" grid="1" gridSize="10" guides="1" tooltips="1" connect="1" arrows="1" fold="1" page="1" pageScale="1" pageWidth="850" pageHeight="1100" background="none" math="0" shadow="0">
      <root>
        <mxCell id="0" />
        <mxCell id="1" parent="0" />
        <mxCell id="1c1d494c118603dd-1" value="Sistem Pemesanan" style="swimlane;html=1;childLayout=stackLayout;startSize=20;rounded=0;shadow=0;comic=0;labelBackgroundColor=none;strokeWidth=1;fontFamily=Verdana;fontSize=12;align=center;movable=1;resizable=1;rotatable=1;deletable=1;editable=1;locked=0;connectable=1;" parent="1" vertex="1">
          <mxGeometry x="10" y="30" width="960" height="1880" as="geometry" />
        </mxCell>
        <mxCell id="1c1d494c118603dd-2" value="Customer" style="swimlane;html=1;startSize=20;movable=1;resizable=1;rotatable=1;deletable=1;editable=1;locked=0;connectable=1;" parent="1c1d494c118603dd-1" vertex="1">
          <mxGeometry y="20" width="320" height="1860" as="geometry" />
        </mxCell>
        <mxCell id="wqHbsf-exHpVI4swrrhD-13" style="edgeStyle=orthogonalEdgeStyle;rounded=0;orthogonalLoop=1;jettySize=auto;html=1;entryX=0.5;entryY=0;entryDx=0;entryDy=0;" parent="1c1d494c118603dd-2" source="wqHbsf-exHpVI4swrrhD-8" target="wqHbsf-exHpVI4swrrhD-10" edge="1">
          <mxGeometry relative="1" as="geometry" />
        </mxCell>
        <mxCell id="wqHbsf-exHpVI4swrrhD-8" value="start" style="html=1;dashed=0;whiteSpace=wrap;shape=mxgraph.dfd.start" parent="1c1d494c118603dd-2" vertex="1">
          <mxGeometry x="50" y="30" width="80" height="30" as="geometry" />
        </mxCell>
        <mxCell id="wqHbsf-exHpVI4swrrhD-14" style="edgeStyle=orthogonalEdgeStyle;rounded=0;orthogonalLoop=1;jettySize=auto;html=1;entryX=0.5;entryY=0;entryDx=0;entryDy=0;" parent="1c1d494c118603dd-2" source="wqHbsf-exHpVI4swrrhD-10" target="wqHbsf-exHpVI4swrrhD-11" edge="1">
          <mxGeometry relative="1" as="geometry" />
        </mxCell>
        <mxCell id="wqHbsf-exHpVI4swrrhD-10" value="menuju&lt;div&gt;mesin&amp;nbsp;&lt;/div&gt;" style="verticalLabelPosition=middle;verticalAlign=middle;html=1;shape=trapezoid;perimeter=trapezoidPerimeter;whiteSpace=wrap;size=0.23;arcSize=10;flipV=1;labelPosition=center;align=center;" parent="1c1d494c118603dd-2" vertex="1">
          <mxGeometry x="115" y="100" width="100" height="60" as="geometry" />
        </mxCell>
        <mxCell id="u9i59XWlAlZomTc7qoZ3-51" style="edgeStyle=orthogonalEdgeStyle;rounded=0;orthogonalLoop=1;jettySize=auto;html=1;entryX=0.618;entryY=0;entryDx=0;entryDy=0;entryPerimeter=0;" parent="1c1d494c118603dd-2" source="wqHbsf-exHpVI4swrrhD-11" target="u9i59XWlAlZomTc7qoZ3-33" edge="1">
          <mxGeometry relative="1" as="geometry" />
        </mxCell>
        <mxCell id="wqHbsf-exHpVI4swrrhD-11" value="memilih opsi&lt;div&gt;menu&lt;/div&gt;" style="verticalLabelPosition=middle;verticalAlign=middle;html=1;shape=trapezoid;perimeter=trapezoidPerimeter;whiteSpace=wrap;size=0.23;arcSize=10;flipV=1;labelPosition=center;align=center;" parent="1c1d494c118603dd-2" vertex="1">
          <mxGeometry x="115" y="190" width="100" height="60" as="geometry" />
        </mxCell>
        <mxCell id="u9i59XWlAlZomTc7qoZ3-33" value="pilihan opsi menu" style="strokeWidth=2;html=1;shape=mxgraph.flowchart.document2;whiteSpace=wrap;size=0.25;" parent="1c1d494c118603dd-2" vertex="1">
          <mxGeometry x="80" y="280" width="80" height="50" as="geometry" />
        </mxCell>
        <mxCell id="u9i59XWlAlZomTc7qoZ3-46" style="edgeStyle=orthogonalEdgeStyle;rounded=0;orthogonalLoop=1;jettySize=auto;html=1;" parent="1c1d494c118603dd-2" source="u9i59XWlAlZomTc7qoZ3-37" target="u9i59XWlAlZomTc7qoZ3-45" edge="1">
          <mxGeometry relative="1" as="geometry" />
        </mxCell>
        <mxCell id="u9i59XWlAlZomTc7qoZ3-37" value="invoice" style="strokeWidth=2;html=1;shape=mxgraph.flowchart.document2;whiteSpace=wrap;size=0.25;" parent="1c1d494c118603dd-2" vertex="1">
          <mxGeometry x="115" y="400" width="100" height="60" as="geometry" />
        </mxCell>
        <mxCell id="u9i59XWlAlZomTc7qoZ3-48" value="" style="edgeStyle=orthogonalEdgeStyle;rounded=0;orthogonalLoop=1;jettySize=auto;html=1;" parent="1c1d494c118603dd-2" source="u9i59XWlAlZomTc7qoZ3-45" target="u9i59XWlAlZomTc7qoZ3-47" edge="1">
          <mxGeometry relative="1" as="geometry" />
        </mxCell>
        <mxCell id="u9i59XWlAlZomTc7qoZ3-45" value="mengecek kevalidan &lt;br&gt;invoice" style="verticalLabelPosition=middle;verticalAlign=middle;html=1;shape=trapezoid;perimeter=trapezoidPerimeter;whiteSpace=wrap;size=0.23;arcSize=10;flipV=1;labelPosition=center;align=center;" parent="1c1d494c118603dd-2" vertex="1">
          <mxGeometry x="115" y="490" width="100" height="60" as="geometry" />
        </mxCell>
        <mxCell id="u9i59XWlAlZomTc7qoZ3-47" value="pergi ke kasir" style="verticalLabelPosition=middle;verticalAlign=middle;html=1;shape=trapezoid;perimeter=trapezoidPerimeter;whiteSpace=wrap;size=0.23;arcSize=10;flipV=1;labelPosition=center;align=center;" parent="1c1d494c118603dd-2" vertex="1">
          <mxGeometry x="115" y="600" width="100" height="60" as="geometry" />
        </mxCell>
        <mxCell id="u9i59XWlAlZomTc7qoZ3-49" value="menu custom" style="strokeWidth=2;html=1;shape=mxgraph.flowchart.document2;whiteSpace=wrap;size=0.25;" parent="1c1d494c118603dd-2" vertex="1">
          <mxGeometry x="100" y="320" width="80" height="50" as="geometry" />
        </mxCell>
        <mxCell id="u9i59XWlAlZomTc7qoZ3-59" style="edgeStyle=orthogonalEdgeStyle;rounded=0;orthogonalLoop=1;jettySize=auto;html=1;" parent="1c1d494c118603dd-2" target="u9i59XWlAlZomTc7qoZ3-58" edge="1">
          <mxGeometry relative="1" as="geometry">
            <mxPoint x="149.9999999999999" y="730" as="sourcePoint" />
            <mxPoint x="99.99999999999955" y="855" as="targetPoint" />
            <Array as="points">
              <mxPoint x="150" y="845" />
              <mxPoint x="105" y="845" />
            </Array>
          </mxGeometry>
        </mxCell>
        <mxCell id="u9i59XWlAlZomTc7qoZ3-55" value="invoice" style="strokeWidth=2;html=1;shape=mxgraph.flowchart.document2;whiteSpace=wrap;size=0.25;" parent="1c1d494c118603dd-2" vertex="1">
          <mxGeometry x="115" y="700" width="100" height="60" as="geometry" />
        </mxCell>
        <mxCell id="u9i59XWlAlZomTc7qoZ3-56" style="edgeStyle=orthogonalEdgeStyle;rounded=0;orthogonalLoop=1;jettySize=auto;html=1;entryX=0.5;entryY=0;entryDx=0;entryDy=0;entryPerimeter=0;" parent="1c1d494c118603dd-2" source="u9i59XWlAlZomTc7qoZ3-47" target="u9i59XWlAlZomTc7qoZ3-55" edge="1">
          <mxGeometry relative="1" as="geometry" />
        </mxCell>
        <mxCell id="u9i59XWlAlZomTc7qoZ3-58" value="1" style="ellipse;whiteSpace=wrap;html=1;aspect=fixed;" parent="1c1d494c118603dd-2" vertex="1">
          <mxGeometry x="50" y="820" width="50" height="50" as="geometry" />
        </mxCell>
        <mxCell id="u9i59XWlAlZomTc7qoZ3-69" value="total harga" style="strokeWidth=2;html=1;shape=mxgraph.flowchart.document2;whiteSpace=wrap;size=0.25;" parent="1c1d494c118603dd-2" vertex="1">
          <mxGeometry x="115" y="930" width="100" height="60" as="geometry" />
        </mxCell>
        <mxCell id="u9i59XWlAlZomTc7qoZ3-70" value="2" style="ellipse;whiteSpace=wrap;html=1;aspect=fixed;" parent="1c1d494c118603dd-2" vertex="1">
          <mxGeometry x="30" y="935" width="50" height="50" as="geometry" />
        </mxCell>
        <mxCell id="u9i59XWlAlZomTc7qoZ3-71" style="edgeStyle=orthogonalEdgeStyle;rounded=0;orthogonalLoop=1;jettySize=auto;html=1;entryX=0;entryY=0.5;entryDx=0;entryDy=0;entryPerimeter=0;" parent="1c1d494c118603dd-2" source="u9i59XWlAlZomTc7qoZ3-70" target="u9i59XWlAlZomTc7qoZ3-69" edge="1">
          <mxGeometry relative="1" as="geometry" />
        </mxCell>
        <mxCell id="u9i59XWlAlZomTc7qoZ3-77" style="edgeStyle=orthogonalEdgeStyle;rounded=0;orthogonalLoop=1;jettySize=auto;html=1;entryX=1;entryY=0.5;entryDx=0;entryDy=0;" parent="1c1d494c118603dd-2" source="u9i59XWlAlZomTc7qoZ3-74" target="u9i59XWlAlZomTc7qoZ3-76" edge="1">
          <mxGeometry relative="1" as="geometry" />
        </mxCell>
        <mxCell id="FpPtYlC5EsILxaDDrqei-9" value="salah" style="edgeLabel;html=1;align=center;verticalAlign=middle;resizable=0;points=[];" parent="u9i59XWlAlZomTc7qoZ3-77" vertex="1" connectable="0">
          <mxGeometry x="-0.4222" y="4" relative="1" as="geometry">
            <mxPoint x="-9" y="-14" as="offset" />
          </mxGeometry>
        </mxCell>
        <mxCell id="u9i59XWlAlZomTc7qoZ3-78" style="edgeStyle=orthogonalEdgeStyle;rounded=0;orthogonalLoop=1;jettySize=auto;html=1;" parent="1c1d494c118603dd-2" source="u9i59XWlAlZomTc7qoZ3-74" target="u9i59XWlAlZomTc7qoZ3-75" edge="1">
          <mxGeometry relative="1" as="geometry" />
        </mxCell>
        <mxCell id="FpPtYlC5EsILxaDDrqei-8" value="benar" style="edgeLabel;html=1;align=center;verticalAlign=middle;resizable=0;points=[];" parent="u9i59XWlAlZomTc7qoZ3-78" vertex="1" connectable="0">
          <mxGeometry x="-0.35" y="-1" relative="1" as="geometry">
            <mxPoint as="offset" />
          </mxGeometry>
        </mxCell>
        <mxCell id="u9i59XWlAlZomTc7qoZ3-74" value="cek validasi&lt;div&gt;harga&lt;/div&gt;" style="strokeWidth=2;html=1;shape=mxgraph.flowchart.decision;whiteSpace=wrap;" parent="1c1d494c118603dd-2" vertex="1">
          <mxGeometry x="115" y="1020" width="100" height="100" as="geometry" />
        </mxCell>
        <mxCell id="u9i59XWlAlZomTc7qoZ3-75" value="membayar ke kasir" style="verticalLabelPosition=middle;verticalAlign=middle;html=1;shape=trapezoid;perimeter=trapezoidPerimeter;whiteSpace=wrap;size=0.23;arcSize=10;flipV=1;labelPosition=center;align=center;" parent="1c1d494c118603dd-2" vertex="1">
          <mxGeometry x="115" y="1160" width="100" height="60" as="geometry" />
        </mxCell>
        <mxCell id="u9i59XWlAlZomTc7qoZ3-76" value="1" style="ellipse;whiteSpace=wrap;html=1;aspect=fixed;" parent="1c1d494c118603dd-2" vertex="1">
          <mxGeometry x="225" y="820" width="50" height="50" as="geometry" />
        </mxCell>
        <mxCell id="u9i59XWlAlZomTc7qoZ3-82" value="kredit/debit" style="strokeWidth=2;html=1;shape=mxgraph.flowchart.document2;whiteSpace=wrap;size=0.25;" parent="1c1d494c118603dd-2" vertex="1">
          <mxGeometry x="110" y="1280" width="80" height="50" as="geometry" />
        </mxCell>
        <mxCell id="u9i59XWlAlZomTc7qoZ3-86" style="edgeStyle=orthogonalEdgeStyle;rounded=0;orthogonalLoop=1;jettySize=auto;html=1;entryX=1;entryY=0.5;entryDx=0;entryDy=0;" parent="1c1d494c118603dd-2" source="u9i59XWlAlZomTc7qoZ3-83" target="u9i59XWlAlZomTc7qoZ3-85" edge="1">
          <mxGeometry relative="1" as="geometry">
            <mxPoint x="90" y="1345" as="targetPoint" />
          </mxGeometry>
        </mxCell>
        <mxCell id="u9i59XWlAlZomTc7qoZ3-83" value="tunai" style="strokeWidth=2;html=1;shape=mxgraph.flowchart.document2;whiteSpace=wrap;size=0.25;" parent="1c1d494c118603dd-2" vertex="1">
          <mxGeometry x="145" y="1320" width="80" height="50" as="geometry" />
        </mxCell>
        <mxCell id="u9i59XWlAlZomTc7qoZ3-84" style="edgeStyle=orthogonalEdgeStyle;rounded=0;orthogonalLoop=1;jettySize=auto;html=1;entryX=0.692;entryY=-0.007;entryDx=0;entryDy=0;entryPerimeter=0;" parent="1c1d494c118603dd-2" source="u9i59XWlAlZomTc7qoZ3-75" target="u9i59XWlAlZomTc7qoZ3-82" edge="1">
          <mxGeometry relative="1" as="geometry" />
        </mxCell>
        <mxCell id="u9i59XWlAlZomTc7qoZ3-85" value="3" style="ellipse;whiteSpace=wrap;html=1;aspect=fixed;" parent="1c1d494c118603dd-2" vertex="1">
          <mxGeometry x="40" y="1320" width="50" height="50" as="geometry" />
        </mxCell>
        <mxCell id="u9i59XWlAlZomTc7qoZ3-109" value="4" style="ellipse;whiteSpace=wrap;html=1;aspect=fixed;" parent="1c1d494c118603dd-2" vertex="1">
          <mxGeometry x="40" y="1417.5" width="50" height="50" as="geometry" />
        </mxCell>
        <mxCell id="u9i59XWlAlZomTc7qoZ3-112" style="edgeStyle=orthogonalEdgeStyle;rounded=0;orthogonalLoop=1;jettySize=auto;html=1;entryX=0.5;entryY=0;entryDx=0;entryDy=0;entryPerimeter=0;" parent="1c1d494c118603dd-2" source="u9i59XWlAlZomTc7qoZ3-69" target="u9i59XWlAlZomTc7qoZ3-74" edge="1">
          <mxGeometry relative="1" as="geometry" />
        </mxCell>
        <mxCell id="FpPtYlC5EsILxaDDrqei-4" value="struk" style="strokeWidth=2;html=1;shape=mxgraph.flowchart.document2;whiteSpace=wrap;size=0.25;" parent="1c1d494c118603dd-2" vertex="1">
          <mxGeometry x="130" y="1400" width="80" height="50" as="geometry" />
        </mxCell>
        <mxCell id="FpPtYlC5EsILxaDDrqei-5" value="wireless calling" style="strokeWidth=2;html=1;shape=mxgraph.flowchart.document2;whiteSpace=wrap;size=0.25;" parent="1c1d494c118603dd-2" vertex="1">
          <mxGeometry x="150" y="1435" width="80" height="50" as="geometry" />
        </mxCell>
        <mxCell id="FpPtYlC5EsILxaDDrqei-7" style="edgeStyle=orthogonalEdgeStyle;rounded=0;orthogonalLoop=1;jettySize=auto;html=1;entryX=-0.008;entryY=0.863;entryDx=0;entryDy=0;entryPerimeter=0;" parent="1c1d494c118603dd-2" source="u9i59XWlAlZomTc7qoZ3-109" target="FpPtYlC5EsILxaDDrqei-4" edge="1">
          <mxGeometry relative="1" as="geometry" />
        </mxCell>
        <mxCell id="FpPtYlC5EsILxaDDrqei-74" value="end" style="html=1;dashed=0;whiteSpace=wrap;shape=mxgraph.dfd.start" parent="1c1d494c118603dd-2" vertex="1">
          <mxGeometry x="110" y="1540" width="80" height="30" as="geometry" />
        </mxCell>
        <mxCell id="FpPtYlC5EsILxaDDrqei-75" value="" style="endArrow=classic;html=1;rounded=0;entryX=0.5;entryY=0.5;entryDx=0;entryDy=-15;entryPerimeter=0;exitX=0.004;exitY=0.826;exitDx=0;exitDy=0;exitPerimeter=0;" parent="1c1d494c118603dd-2" source="FpPtYlC5EsILxaDDrqei-5" target="FpPtYlC5EsILxaDDrqei-74" edge="1">
          <mxGeometry width="50" height="50" relative="1" as="geometry">
            <mxPoint x="240" y="1560" as="sourcePoint" />
            <mxPoint x="290" y="1510" as="targetPoint" />
          </mxGeometry>
        </mxCell>
        <mxCell id="1c1d494c118603dd-3" value="Sistem" style="swimlane;html=1;startSize=20;movable=1;resizable=1;rotatable=1;deletable=1;editable=1;locked=0;connectable=1;" parent="1c1d494c118603dd-1" vertex="1">
          <mxGeometry x="320" y="20" width="320" height="1860" as="geometry" />
        </mxCell>
        <mxCell id="u9i59XWlAlZomTc7qoZ3-42" style="edgeStyle=orthogonalEdgeStyle;rounded=0;orthogonalLoop=1;jettySize=auto;html=1;" parent="1c1d494c118603dd-3" source="u9i59XWlAlZomTc7qoZ3-34" target="u9i59XWlAlZomTc7qoZ3-35" edge="1">
          <mxGeometry relative="1" as="geometry" />
        </mxCell>
        <mxCell id="u9i59XWlAlZomTc7qoZ3-34" value="menu custom" style="strokeWidth=2;html=1;shape=mxgraph.flowchart.document2;whiteSpace=wrap;size=0.25;" parent="1c1d494c118603dd-3" vertex="1">
          <mxGeometry x="50" y="40" width="100" height="60" as="geometry" />
        </mxCell>
        <mxCell id="u9i59XWlAlZomTc7qoZ3-35" value="mengkonfirmasi pesanan" style="rounded=0;whiteSpace=wrap;html=1;" parent="1c1d494c118603dd-3" vertex="1">
          <mxGeometry x="170" y="170" width="120" height="60" as="geometry" />
        </mxCell>
        <mxCell id="u9i59XWlAlZomTc7qoZ3-36" value="membuat invoice" style="strokeWidth=2;html=1;shape=mxgraph.flowchart.document2;whiteSpace=wrap;size=0.25;" parent="1c1d494c118603dd-3" vertex="1">
          <mxGeometry x="100" y="280" width="100" height="60" as="geometry" />
        </mxCell>
        <mxCell id="u9i59XWlAlZomTc7qoZ3-43" style="edgeStyle=orthogonalEdgeStyle;rounded=0;orthogonalLoop=1;jettySize=auto;html=1;entryX=0.5;entryY=0;entryDx=0;entryDy=0;entryPerimeter=0;" parent="1c1d494c118603dd-3" source="u9i59XWlAlZomTc7qoZ3-35" target="u9i59XWlAlZomTc7qoZ3-36" edge="1">
          <mxGeometry relative="1" as="geometry" />
        </mxCell>
        <mxCell id="u9i59XWlAlZomTc7qoZ3-44" style="edgeStyle=orthogonalEdgeStyle;rounded=0;orthogonalLoop=1;jettySize=auto;html=1;entryX=0.995;entryY=0.603;entryDx=0;entryDy=0;entryPerimeter=0;" parent="1c1d494c118603dd-1" source="u9i59XWlAlZomTc7qoZ3-36" target="u9i59XWlAlZomTc7qoZ3-37" edge="1">
          <mxGeometry relative="1" as="geometry">
            <Array as="points">
              <mxPoint x="450" y="320" />
              <mxPoint x="400" y="320" />
              <mxPoint x="400" y="456" />
            </Array>
          </mxGeometry>
        </mxCell>
        <mxCell id="u9i59XWlAlZomTc7qoZ3-54" style="edgeStyle=orthogonalEdgeStyle;rounded=0;orthogonalLoop=1;jettySize=auto;html=1;entryX=0;entryY=0.5;entryDx=0;entryDy=0;entryPerimeter=0;" parent="1c1d494c118603dd-1" source="u9i59XWlAlZomTc7qoZ3-49" target="u9i59XWlAlZomTc7qoZ3-34" edge="1">
          <mxGeometry relative="1" as="geometry" />
        </mxCell>
        <mxCell id="1c1d494c118603dd-4" value="Kasir" style="swimlane;html=1;startSize=20;movable=1;resizable=1;rotatable=1;deletable=1;editable=1;locked=0;connectable=1;" parent="1c1d494c118603dd-1" vertex="1">
          <mxGeometry x="640" y="20" width="320" height="1860" as="geometry" />
        </mxCell>
        <mxCell id="u9i59XWlAlZomTc7qoZ3-65" style="edgeStyle=orthogonalEdgeStyle;rounded=0;orthogonalLoop=1;jettySize=auto;html=1;" parent="1c1d494c118603dd-4" source="wqHbsf-exHpVI4swrrhD-23" target="u9i59XWlAlZomTc7qoZ3-62" edge="1">
          <mxGeometry relative="1" as="geometry" />
        </mxCell>
        <mxCell id="wqHbsf-exHpVI4swrrhD-23" value="1" style="ellipse;whiteSpace=wrap;html=1;aspect=fixed;" parent="1c1d494c118603dd-4" vertex="1">
          <mxGeometry x="30" y="45" width="50" height="50" as="geometry" />
        </mxCell>
        <mxCell id="u9i59XWlAlZomTc7qoZ3-89" style="edgeStyle=orthogonalEdgeStyle;rounded=0;orthogonalLoop=1;jettySize=auto;html=1;entryX=0.5;entryY=0;entryDx=0;entryDy=0;" parent="1c1d494c118603dd-4" source="u9i59XWlAlZomTc7qoZ3-61" target="u9i59XWlAlZomTc7qoZ3-66" edge="1">
          <mxGeometry relative="1" as="geometry" />
        </mxCell>
        <mxCell id="u9i59XWlAlZomTc7qoZ3-61" value="mengkonfirmasi pesanan" style="rounded=0;whiteSpace=wrap;html=1;" parent="1c1d494c118603dd-4" vertex="1">
          <mxGeometry x="120" y="140" width="120" height="60" as="geometry" />
        </mxCell>
        <mxCell id="u9i59XWlAlZomTc7qoZ3-88" style="edgeStyle=orthogonalEdgeStyle;rounded=0;orthogonalLoop=1;jettySize=auto;html=1;entryX=0.5;entryY=0;entryDx=0;entryDy=0;" parent="1c1d494c118603dd-4" source="u9i59XWlAlZomTc7qoZ3-62" target="u9i59XWlAlZomTc7qoZ3-61" edge="1">
          <mxGeometry relative="1" as="geometry" />
        </mxCell>
        <mxCell id="u9i59XWlAlZomTc7qoZ3-62" value="invoice" style="strokeWidth=2;html=1;shape=mxgraph.flowchart.document2;whiteSpace=wrap;size=0.25;" parent="1c1d494c118603dd-4" vertex="1">
          <mxGeometry x="130" y="40" width="100" height="60" as="geometry" />
        </mxCell>
        <mxCell id="u9i59XWlAlZomTc7qoZ3-66" value="menghitung total bayar" style="verticalLabelPosition=middle;verticalAlign=middle;html=1;shape=trapezoid;perimeter=trapezoidPerimeter;whiteSpace=wrap;size=0.23;arcSize=10;flipV=1;labelPosition=center;align=center;" parent="1c1d494c118603dd-4" vertex="1">
          <mxGeometry x="130" y="240" width="100" height="60" as="geometry" />
        </mxCell>
        <mxCell id="u9i59XWlAlZomTc7qoZ3-72" style="edgeStyle=orthogonalEdgeStyle;rounded=0;orthogonalLoop=1;jettySize=auto;html=1;entryX=1;entryY=0.5;entryDx=0;entryDy=0;" parent="1c1d494c118603dd-4" source="u9i59XWlAlZomTc7qoZ3-67" target="u9i59XWlAlZomTc7qoZ3-68" edge="1">
          <mxGeometry relative="1" as="geometry" />
        </mxCell>
        <mxCell id="u9i59XWlAlZomTc7qoZ3-67" value="total harga" style="strokeWidth=2;html=1;shape=mxgraph.flowchart.document2;whiteSpace=wrap;size=0.25;" parent="1c1d494c118603dd-4" vertex="1">
          <mxGeometry x="130" y="340" width="100" height="60" as="geometry" />
        </mxCell>
        <mxCell id="u9i59XWlAlZomTc7qoZ3-68" value="2" style="ellipse;whiteSpace=wrap;html=1;aspect=fixed;" parent="1c1d494c118603dd-4" vertex="1">
          <mxGeometry x="30" y="345" width="50" height="50" as="geometry" />
        </mxCell>
        <mxCell id="u9i59XWlAlZomTc7qoZ3-90" style="edgeStyle=orthogonalEdgeStyle;rounded=0;orthogonalLoop=1;jettySize=auto;html=1;entryX=0.5;entryY=0;entryDx=0;entryDy=0;entryPerimeter=0;" parent="1c1d494c118603dd-4" source="u9i59XWlAlZomTc7qoZ3-66" target="u9i59XWlAlZomTc7qoZ3-67" edge="1">
          <mxGeometry relative="1" as="geometry" />
        </mxCell>
        <mxCell id="u9i59XWlAlZomTc7qoZ3-91" value="kredit/debit" style="strokeWidth=2;html=1;shape=mxgraph.flowchart.document2;whiteSpace=wrap;size=0.25;" parent="1c1d494c118603dd-4" vertex="1">
          <mxGeometry x="130" y="470" width="80" height="50" as="geometry" />
        </mxCell>
        <mxCell id="u9i59XWlAlZomTc7qoZ3-93" value="tunai" style="strokeWidth=2;html=1;shape=mxgraph.flowchart.document2;whiteSpace=wrap;size=0.25;" parent="1c1d494c118603dd-4" vertex="1">
          <mxGeometry x="165" y="510" width="80" height="50" as="geometry" />
        </mxCell>
        <mxCell id="u9i59XWlAlZomTc7qoZ3-97" style="edgeStyle=orthogonalEdgeStyle;rounded=0;orthogonalLoop=1;jettySize=auto;html=1;entryX=0.027;entryY=0.39;entryDx=0;entryDy=0;entryPerimeter=0;" parent="1c1d494c118603dd-4" source="u9i59XWlAlZomTc7qoZ3-94" target="u9i59XWlAlZomTc7qoZ3-93" edge="1">
          <mxGeometry relative="1" as="geometry">
            <mxPoint x="160" y="530" as="targetPoint" />
          </mxGeometry>
        </mxCell>
        <mxCell id="u9i59XWlAlZomTc7qoZ3-94" value="3" style="ellipse;whiteSpace=wrap;html=1;aspect=fixed;" parent="1c1d494c118603dd-4" vertex="1">
          <mxGeometry x="30" y="505" width="50" height="50" as="geometry" />
        </mxCell>
        <mxCell id="u9i59XWlAlZomTc7qoZ3-96" style="edgeStyle=orthogonalEdgeStyle;rounded=0;orthogonalLoop=1;jettySize=auto;html=1;entryX=0.615;entryY=-0.011;entryDx=0;entryDy=0;entryPerimeter=0;" parent="1c1d494c118603dd-4" source="u9i59XWlAlZomTc7qoZ3-67" target="u9i59XWlAlZomTc7qoZ3-91" edge="1">
          <mxGeometry relative="1" as="geometry" />
        </mxCell>
        <mxCell id="u9i59XWlAlZomTc7qoZ3-103" style="edgeStyle=orthogonalEdgeStyle;rounded=0;orthogonalLoop=1;jettySize=auto;html=1;" parent="1c1d494c118603dd-4" source="u9i59XWlAlZomTc7qoZ3-99" target="u9i59XWlAlZomTc7qoZ3-101" edge="1">
          <mxGeometry relative="1" as="geometry" />
        </mxCell>
        <mxCell id="u9i59XWlAlZomTc7qoZ3-99" value="mengkonfirmasi pembayaran" style="rounded=0;whiteSpace=wrap;html=1;" parent="1c1d494c118603dd-4" vertex="1">
          <mxGeometry x="120" y="600" width="120" height="60" as="geometry" />
        </mxCell>
        <mxCell id="u9i59XWlAlZomTc7qoZ3-100" value="" style="endArrow=classic;html=1;rounded=0;entryX=0.5;entryY=0;entryDx=0;entryDy=0;exitX=0.188;exitY=1.025;exitDx=0;exitDy=0;exitPerimeter=0;" parent="1c1d494c118603dd-4" source="u9i59XWlAlZomTc7qoZ3-93" target="u9i59XWlAlZomTc7qoZ3-99" edge="1">
          <mxGeometry width="50" height="50" relative="1" as="geometry">
            <mxPoint x="170" y="560" as="sourcePoint" />
            <mxPoint x="-130" y="560" as="targetPoint" />
          </mxGeometry>
        </mxCell>
        <mxCell id="u9i59XWlAlZomTc7qoZ3-101" value="membuatkan struk" style="verticalLabelPosition=middle;verticalAlign=middle;html=1;shape=trapezoid;perimeter=trapezoidPerimeter;whiteSpace=wrap;size=0.23;arcSize=10;flipV=1;labelPosition=center;align=center;" parent="1c1d494c118603dd-4" vertex="1">
          <mxGeometry x="130" y="710" width="100" height="60" as="geometry" />
        </mxCell>
        <mxCell id="u9i59XWlAlZomTc7qoZ3-102" value="struk" style="strokeWidth=2;html=1;shape=mxgraph.flowchart.document2;whiteSpace=wrap;size=0.25;" parent="1c1d494c118603dd-4" vertex="1">
          <mxGeometry x="120" y="835" width="80" height="50" as="geometry" />
        </mxCell>
        <mxCell id="u9i59XWlAlZomTc7qoZ3-105" value="4" style="ellipse;whiteSpace=wrap;html=1;aspect=fixed;" parent="1c1d494c118603dd-4" vertex="1">
          <mxGeometry x="30" y="850" width="50" height="50" as="geometry" />
        </mxCell>
        <mxCell id="FpPtYlC5EsILxaDDrqei-1" value="wireless calling" style="strokeWidth=2;html=1;shape=mxgraph.flowchart.document2;whiteSpace=wrap;size=0.25;" parent="1c1d494c118603dd-4" vertex="1">
          <mxGeometry x="140" y="870" width="80" height="50" as="geometry" />
        </mxCell>
        <mxCell id="FpPtYlC5EsILxaDDrqei-2" style="edgeStyle=orthogonalEdgeStyle;rounded=0;orthogonalLoop=1;jettySize=auto;html=1;entryX=0.75;entryY=0;entryDx=0;entryDy=0;entryPerimeter=0;" parent="1c1d494c118603dd-4" source="u9i59XWlAlZomTc7qoZ3-101" target="u9i59XWlAlZomTc7qoZ3-102" edge="1">
          <mxGeometry relative="1" as="geometry" />
        </mxCell>
        <mxCell id="FpPtYlC5EsILxaDDrqei-3" value="" style="endArrow=classic;html=1;rounded=0;exitX=-0.048;exitY=0.877;exitDx=0;exitDy=0;exitPerimeter=0;" parent="1c1d494c118603dd-4" source="u9i59XWlAlZomTc7qoZ3-102" edge="1">
          <mxGeometry width="50" height="50" relative="1" as="geometry">
            <mxPoint x="60" y="1010" as="sourcePoint" />
            <mxPoint x="80" y="879" as="targetPoint" />
          </mxGeometry>
        </mxCell>
        <mxCell id="u9i59XWlAlZomTc7qoZ3-113" value="Sistem pembuatan makanan" style="swimlane;childLayout=stackLayout;resizeParent=1;resizeParentMax=0;startSize=20;html=1;" parent="1" vertex="1">
          <mxGeometry x="1360" width="1020" height="1440" as="geometry" />
        </mxCell>
        <mxCell id="u9i59XWlAlZomTc7qoZ3-114" value="Customer" style="swimlane;startSize=20;html=1;" parent="u9i59XWlAlZomTc7qoZ3-113" vertex="1">
          <mxGeometry y="20" width="340" height="1420" as="geometry" />
        </mxCell>
        <mxCell id="FpPtYlC5EsILxaDDrqei-113" style="edgeStyle=orthogonalEdgeStyle;rounded=0;orthogonalLoop=1;jettySize=auto;html=1;entryX=0.5;entryY=0;entryDx=0;entryDy=0;" parent="u9i59XWlAlZomTc7qoZ3-114" source="FpPtYlC5EsILxaDDrqei-108" target="FpPtYlC5EsILxaDDrqei-111" edge="1">
          <mxGeometry relative="1" as="geometry" />
        </mxCell>
        <mxCell id="FpPtYlC5EsILxaDDrqei-108" value="notifikasi" style="strokeWidth=2;html=1;shape=mxgraph.flowchart.document2;whiteSpace=wrap;size=0.25;" parent="u9i59XWlAlZomTc7qoZ3-114" vertex="1">
          <mxGeometry x="120" y="50" width="100" height="60" as="geometry" />
        </mxCell>
        <mxCell id="FpPtYlC5EsILxaDDrqei-109" value="2" style="ellipse;whiteSpace=wrap;html=1;aspect=fixed;" parent="u9i59XWlAlZomTc7qoZ3-114" vertex="1">
          <mxGeometry x="30" y="55" width="50" height="50" as="geometry" />
        </mxCell>
        <mxCell id="FpPtYlC5EsILxaDDrqei-110" style="edgeStyle=orthogonalEdgeStyle;rounded=0;orthogonalLoop=1;jettySize=auto;html=1;entryX=0;entryY=0.5;entryDx=0;entryDy=0;entryPerimeter=0;" parent="u9i59XWlAlZomTc7qoZ3-114" source="FpPtYlC5EsILxaDDrqei-109" target="FpPtYlC5EsILxaDDrqei-108" edge="1">
          <mxGeometry relative="1" as="geometry" />
        </mxCell>
        <mxCell id="FpPtYlC5EsILxaDDrqei-111" value="mendatangi &lt;br&gt;kasir" style="verticalLabelPosition=middle;verticalAlign=middle;html=1;shape=trapezoid;perimeter=trapezoidPerimeter;whiteSpace=wrap;size=0.23;arcSize=10;flipV=1;labelPosition=center;align=center;" parent="u9i59XWlAlZomTc7qoZ3-114" vertex="1">
          <mxGeometry x="120" y="140" width="100" height="60" as="geometry" />
        </mxCell>
        <mxCell id="FpPtYlC5EsILxaDDrqei-117" style="edgeStyle=orthogonalEdgeStyle;rounded=0;orthogonalLoop=1;jettySize=auto;html=1;entryX=1;entryY=0.5;entryDx=0;entryDy=0;" parent="u9i59XWlAlZomTc7qoZ3-114" source="FpPtYlC5EsILxaDDrqei-112" target="FpPtYlC5EsILxaDDrqei-115" edge="1">
          <mxGeometry relative="1" as="geometry" />
        </mxCell>
        <mxCell id="FpPtYlC5EsILxaDDrqei-112" value="memberikan  wireless calling" style="strokeWidth=2;html=1;shape=mxgraph.flowchart.document2;whiteSpace=wrap;size=0.25;" parent="u9i59XWlAlZomTc7qoZ3-114" vertex="1">
          <mxGeometry x="120" y="260" width="100" height="60" as="geometry" />
        </mxCell>
        <mxCell id="FpPtYlC5EsILxaDDrqei-114" style="edgeStyle=orthogonalEdgeStyle;rounded=0;orthogonalLoop=1;jettySize=auto;html=1;entryX=0.5;entryY=0;entryDx=0;entryDy=0;entryPerimeter=0;" parent="u9i59XWlAlZomTc7qoZ3-114" source="FpPtYlC5EsILxaDDrqei-111" target="FpPtYlC5EsILxaDDrqei-112" edge="1">
          <mxGeometry relative="1" as="geometry" />
        </mxCell>
        <mxCell id="FpPtYlC5EsILxaDDrqei-115" value="3" style="ellipse;whiteSpace=wrap;html=1;aspect=fixed;" parent="u9i59XWlAlZomTc7qoZ3-114" vertex="1">
          <mxGeometry x="30" y="265" width="50" height="50" as="geometry" />
        </mxCell>
        <mxCell id="QvwExv97PCOJJsuxtD2M-10" value="memberikan makanan" style="strokeWidth=2;html=1;shape=mxgraph.flowchart.document2;whiteSpace=wrap;size=0.25;" parent="u9i59XWlAlZomTc7qoZ3-114" vertex="1">
          <mxGeometry x="120" y="400" width="100" height="60" as="geometry" />
        </mxCell>
        <mxCell id="QvwExv97PCOJJsuxtD2M-11" value="4" style="ellipse;whiteSpace=wrap;html=1;aspect=fixed;" parent="u9i59XWlAlZomTc7qoZ3-114" vertex="1">
          <mxGeometry x="30" y="405" width="50" height="50" as="geometry" />
        </mxCell>
        <mxCell id="QvwExv97PCOJJsuxtD2M-13" style="edgeStyle=orthogonalEdgeStyle;rounded=0;orthogonalLoop=1;jettySize=auto;html=1;entryX=0;entryY=0.5;entryDx=0;entryDy=0;entryPerimeter=0;" parent="u9i59XWlAlZomTc7qoZ3-114" source="QvwExv97PCOJJsuxtD2M-11" target="QvwExv97PCOJJsuxtD2M-10" edge="1">
          <mxGeometry relative="1" as="geometry" />
        </mxCell>
        <mxCell id="QvwExv97PCOJJsuxtD2M-14" value="end" style="html=1;dashed=0;whiteSpace=wrap;shape=mxgraph.dfd.start" parent="u9i59XWlAlZomTc7qoZ3-114" vertex="1">
          <mxGeometry x="130" y="510" width="80" height="30" as="geometry" />
        </mxCell>
        <mxCell id="QvwExv97PCOJJsuxtD2M-15" style="edgeStyle=orthogonalEdgeStyle;rounded=0;orthogonalLoop=1;jettySize=auto;html=1;entryX=0.5;entryY=0.5;entryDx=0;entryDy=-15;entryPerimeter=0;" parent="u9i59XWlAlZomTc7qoZ3-114" source="QvwExv97PCOJJsuxtD2M-10" target="QvwExv97PCOJJsuxtD2M-14" edge="1">
          <mxGeometry relative="1" as="geometry" />
        </mxCell>
        <mxCell id="u9i59XWlAlZomTc7qoZ3-115" value="Stan" style="swimlane;startSize=20;html=1;" parent="u9i59XWlAlZomTc7qoZ3-113" vertex="1">
          <mxGeometry x="340" y="20" width="340" height="1420" as="geometry" />
        </mxCell>
        <mxCell id="FpPtYlC5EsILxaDDrqei-84" style="edgeStyle=orthogonalEdgeStyle;rounded=0;orthogonalLoop=1;jettySize=auto;html=1;entryX=0.5;entryY=0;entryDx=0;entryDy=0;" parent="u9i59XWlAlZomTc7qoZ3-115" source="FpPtYlC5EsILxaDDrqei-79" target="FpPtYlC5EsILxaDDrqei-81" edge="1">
          <mxGeometry relative="1" as="geometry" />
        </mxCell>
        <mxCell id="FpPtYlC5EsILxaDDrqei-79" value="konfirmasi pelanggan" style="strokeWidth=2;html=1;shape=mxgraph.flowchart.document2;whiteSpace=wrap;size=0.25;" parent="u9i59XWlAlZomTc7qoZ3-115" vertex="1">
          <mxGeometry x="120" y="45" width="100" height="60" as="geometry" />
        </mxCell>
        <mxCell id="FpPtYlC5EsILxaDDrqei-85" style="edgeStyle=orthogonalEdgeStyle;rounded=0;orthogonalLoop=1;jettySize=auto;html=1;" parent="u9i59XWlAlZomTc7qoZ3-115" source="FpPtYlC5EsILxaDDrqei-81" target="FpPtYlC5EsILxaDDrqei-83" edge="1">
          <mxGeometry relative="1" as="geometry" />
        </mxCell>
        <mxCell id="FpPtYlC5EsILxaDDrqei-81" value="mendata &lt;br&gt;pesanan" style="verticalLabelPosition=middle;verticalAlign=middle;html=1;shape=trapezoid;perimeter=trapezoidPerimeter;whiteSpace=wrap;size=0.23;arcSize=10;flipV=1;labelPosition=center;align=center;" parent="u9i59XWlAlZomTc7qoZ3-115" vertex="1">
          <mxGeometry x="120" y="150" width="100" height="60" as="geometry" />
        </mxCell>
        <mxCell id="FpPtYlC5EsILxaDDrqei-83" value="membuatkan pesanan" style="verticalLabelPosition=middle;verticalAlign=middle;html=1;shape=trapezoid;perimeter=trapezoidPerimeter;whiteSpace=wrap;size=0.23;arcSize=10;flipV=1;labelPosition=center;align=center;" parent="u9i59XWlAlZomTc7qoZ3-115" vertex="1">
          <mxGeometry x="120" y="250" width="100" height="60" as="geometry" />
        </mxCell>
        <mxCell id="FpPtYlC5EsILxaDDrqei-86" value="pesanan" style="strokeWidth=2;html=1;shape=mxgraph.flowchart.document2;whiteSpace=wrap;size=0.25;" parent="u9i59XWlAlZomTc7qoZ3-115" vertex="1">
          <mxGeometry x="120" y="375" width="100" height="60" as="geometry" />
        </mxCell>
        <mxCell id="FpPtYlC5EsILxaDDrqei-87" style="edgeStyle=orthogonalEdgeStyle;rounded=0;orthogonalLoop=1;jettySize=auto;html=1;entryX=0.5;entryY=0;entryDx=0;entryDy=0;entryPerimeter=0;" parent="u9i59XWlAlZomTc7qoZ3-115" source="FpPtYlC5EsILxaDDrqei-83" target="FpPtYlC5EsILxaDDrqei-86" edge="1">
          <mxGeometry relative="1" as="geometry" />
        </mxCell>
        <mxCell id="FpPtYlC5EsILxaDDrqei-95" value="1" style="ellipse;whiteSpace=wrap;html=1;aspect=fixed;" parent="u9i59XWlAlZomTc7qoZ3-115" vertex="1">
          <mxGeometry x="280" y="50" width="50" height="50" as="geometry" />
        </mxCell>
        <mxCell id="FpPtYlC5EsILxaDDrqei-96" style="edgeStyle=orthogonalEdgeStyle;rounded=0;orthogonalLoop=1;jettySize=auto;html=1;entryX=1;entryY=0.5;entryDx=0;entryDy=0;entryPerimeter=0;" parent="u9i59XWlAlZomTc7qoZ3-115" source="FpPtYlC5EsILxaDDrqei-95" target="FpPtYlC5EsILxaDDrqei-79" edge="1">
          <mxGeometry relative="1" as="geometry" />
        </mxCell>
        <mxCell id="u9i59XWlAlZomTc7qoZ3-116" value="Kasir" style="swimlane;startSize=20;html=1;" parent="u9i59XWlAlZomTc7qoZ3-113" vertex="1">
          <mxGeometry x="680" y="20" width="340" height="1420" as="geometry" />
        </mxCell>
        <mxCell id="FpPtYlC5EsILxaDDrqei-77" style="edgeStyle=orthogonalEdgeStyle;rounded=0;orthogonalLoop=1;jettySize=auto;html=1;" parent="u9i59XWlAlZomTc7qoZ3-116" source="u9i59XWlAlZomTc7qoZ3-117" target="FpPtYlC5EsILxaDDrqei-76" edge="1">
          <mxGeometry relative="1" as="geometry" />
        </mxCell>
        <mxCell id="u9i59XWlAlZomTc7qoZ3-117" value="start" style="html=1;dashed=0;whiteSpace=wrap;shape=mxgraph.dfd.start" parent="u9i59XWlAlZomTc7qoZ3-116" vertex="1">
          <mxGeometry x="130" y="45" width="80" height="30" as="geometry" />
        </mxCell>
        <mxCell id="FpPtYlC5EsILxaDDrqei-76" value="membuat konfirmasi pembayaran pelanggan" style="verticalLabelPosition=middle;verticalAlign=middle;html=1;shape=trapezoid;perimeter=trapezoidPerimeter;whiteSpace=wrap;size=0.23;arcSize=10;flipV=1;labelPosition=center;align=center;" parent="u9i59XWlAlZomTc7qoZ3-116" vertex="1">
          <mxGeometry x="115" y="110" width="110" height="70" as="geometry" />
        </mxCell>
        <mxCell id="FpPtYlC5EsILxaDDrqei-94" style="edgeStyle=orthogonalEdgeStyle;rounded=0;orthogonalLoop=1;jettySize=auto;html=1;entryX=1;entryY=0.5;entryDx=0;entryDy=0;" parent="u9i59XWlAlZomTc7qoZ3-116" source="FpPtYlC5EsILxaDDrqei-78" target="FpPtYlC5EsILxaDDrqei-93" edge="1">
          <mxGeometry relative="1" as="geometry" />
        </mxCell>
        <mxCell id="FpPtYlC5EsILxaDDrqei-78" value="konfirmasi pelanggan" style="strokeWidth=2;html=1;shape=mxgraph.flowchart.document2;whiteSpace=wrap;size=0.25;" parent="u9i59XWlAlZomTc7qoZ3-116" vertex="1">
          <mxGeometry x="120" y="230" width="100" height="60" as="geometry" />
        </mxCell>
        <mxCell id="FpPtYlC5EsILxaDDrqei-88" value="pesanan" style="strokeWidth=2;html=1;shape=mxgraph.flowchart.document2;whiteSpace=wrap;size=0.25;" parent="u9i59XWlAlZomTc7qoZ3-116" vertex="1">
          <mxGeometry x="120" y="340" width="100" height="60" as="geometry" />
        </mxCell>
        <mxCell id="FpPtYlC5EsILxaDDrqei-90" style="edgeStyle=orthogonalEdgeStyle;rounded=0;orthogonalLoop=1;jettySize=auto;html=1;entryX=0.5;entryY=0;entryDx=0;entryDy=0;entryPerimeter=0;" parent="u9i59XWlAlZomTc7qoZ3-116" source="FpPtYlC5EsILxaDDrqei-76" target="FpPtYlC5EsILxaDDrqei-78" edge="1">
          <mxGeometry relative="1" as="geometry" />
        </mxCell>
        <mxCell id="FpPtYlC5EsILxaDDrqei-98" style="edgeStyle=orthogonalEdgeStyle;rounded=0;orthogonalLoop=1;jettySize=auto;html=1;entryX=1;entryY=0.5;entryDx=0;entryDy=0;" parent="u9i59XWlAlZomTc7qoZ3-116" source="FpPtYlC5EsILxaDDrqei-92" target="FpPtYlC5EsILxaDDrqei-97" edge="1">
          <mxGeometry relative="1" as="geometry" />
        </mxCell>
        <mxCell id="FpPtYlC5EsILxaDDrqei-99" value="tdk &lt;br&gt;seuai" style="edgeLabel;html=1;align=center;verticalAlign=middle;resizable=0;points=[];" parent="FpPtYlC5EsILxaDDrqei-98" vertex="1" connectable="0">
          <mxGeometry x="-0.1714" y="3" relative="1" as="geometry">
            <mxPoint y="-23" as="offset" />
          </mxGeometry>
        </mxCell>
        <mxCell id="FpPtYlC5EsILxaDDrqei-102" style="edgeStyle=orthogonalEdgeStyle;rounded=0;orthogonalLoop=1;jettySize=auto;html=1;entryX=0.5;entryY=0;entryDx=0;entryDy=0;" parent="u9i59XWlAlZomTc7qoZ3-116" source="FpPtYlC5EsILxaDDrqei-92" target="FpPtYlC5EsILxaDDrqei-101" edge="1">
          <mxGeometry relative="1" as="geometry" />
        </mxCell>
        <mxCell id="FpPtYlC5EsILxaDDrqei-92" value="memastikan jumlah &lt;br&gt;pesanan" style="strokeWidth=2;html=1;shape=mxgraph.flowchart.decision;whiteSpace=wrap;" parent="u9i59XWlAlZomTc7qoZ3-116" vertex="1">
          <mxGeometry x="120" y="440" width="100" height="100" as="geometry" />
        </mxCell>
        <mxCell id="FpPtYlC5EsILxaDDrqei-93" value="1" style="ellipse;whiteSpace=wrap;html=1;aspect=fixed;" parent="u9i59XWlAlZomTc7qoZ3-116" vertex="1">
          <mxGeometry x="20" y="235" width="50" height="50" as="geometry" />
        </mxCell>
        <mxCell id="FpPtYlC5EsILxaDDrqei-97" value="1" style="ellipse;whiteSpace=wrap;html=1;aspect=fixed;" parent="u9i59XWlAlZomTc7qoZ3-116" vertex="1">
          <mxGeometry x="240" y="235" width="50" height="50" as="geometry" />
        </mxCell>
        <mxCell id="FpPtYlC5EsILxaDDrqei-100" style="edgeStyle=orthogonalEdgeStyle;rounded=0;orthogonalLoop=1;jettySize=auto;html=1;entryX=0.5;entryY=0;entryDx=0;entryDy=0;entryPerimeter=0;" parent="u9i59XWlAlZomTc7qoZ3-116" source="FpPtYlC5EsILxaDDrqei-88" target="FpPtYlC5EsILxaDDrqei-92" edge="1">
          <mxGeometry relative="1" as="geometry" />
        </mxCell>
        <mxCell id="FpPtYlC5EsILxaDDrqei-101" value="mendata &lt;br&gt;pesanan" style="verticalLabelPosition=middle;verticalAlign=middle;html=1;shape=trapezoid;perimeter=trapezoidPerimeter;whiteSpace=wrap;size=0.23;arcSize=10;flipV=1;labelPosition=center;align=center;" parent="u9i59XWlAlZomTc7qoZ3-116" vertex="1">
          <mxGeometry x="120" y="580" width="100" height="60" as="geometry" />
        </mxCell>
        <mxCell id="FpPtYlC5EsILxaDDrqei-106" style="edgeStyle=orthogonalEdgeStyle;rounded=0;orthogonalLoop=1;jettySize=auto;html=1;" parent="u9i59XWlAlZomTc7qoZ3-116" source="FpPtYlC5EsILxaDDrqei-103" target="FpPtYlC5EsILxaDDrqei-105" edge="1">
          <mxGeometry relative="1" as="geometry" />
        </mxCell>
        <mxCell id="FpPtYlC5EsILxaDDrqei-103" value="membunyikan notifikasi" style="strokeWidth=2;html=1;shape=mxgraph.flowchart.document2;whiteSpace=wrap;size=0.25;" parent="u9i59XWlAlZomTc7qoZ3-116" vertex="1">
          <mxGeometry x="120" y="690" width="100" height="60" as="geometry" />
        </mxCell>
        <mxCell id="FpPtYlC5EsILxaDDrqei-104" style="edgeStyle=orthogonalEdgeStyle;rounded=0;orthogonalLoop=1;jettySize=auto;html=1;entryX=0.5;entryY=0;entryDx=0;entryDy=0;entryPerimeter=0;" parent="u9i59XWlAlZomTc7qoZ3-116" source="FpPtYlC5EsILxaDDrqei-101" target="FpPtYlC5EsILxaDDrqei-103" edge="1">
          <mxGeometry relative="1" as="geometry" />
        </mxCell>
        <mxCell id="FpPtYlC5EsILxaDDrqei-105" value="2" style="ellipse;whiteSpace=wrap;html=1;aspect=fixed;" parent="u9i59XWlAlZomTc7qoZ3-116" vertex="1">
          <mxGeometry x="20" y="695" width="50" height="50" as="geometry" />
        </mxCell>
        <mxCell id="QvwExv97PCOJJsuxtD2M-5" style="edgeStyle=orthogonalEdgeStyle;rounded=0;orthogonalLoop=1;jettySize=auto;html=1;" parent="u9i59XWlAlZomTc7qoZ3-116" source="FpPtYlC5EsILxaDDrqei-119" target="QvwExv97PCOJJsuxtD2M-4" edge="1">
          <mxGeometry relative="1" as="geometry" />
        </mxCell>
        <mxCell id="FpPtYlC5EsILxaDDrqei-119" value="memberikan  wireless calling" style="strokeWidth=2;html=1;shape=mxgraph.flowchart.document2;whiteSpace=wrap;size=0.25;" parent="u9i59XWlAlZomTc7qoZ3-116" vertex="1">
          <mxGeometry x="120" y="815" width="100" height="60" as="geometry" />
        </mxCell>
        <mxCell id="FpPtYlC5EsILxaDDrqei-120" value="3" style="ellipse;whiteSpace=wrap;html=1;aspect=fixed;" parent="u9i59XWlAlZomTc7qoZ3-116" vertex="1">
          <mxGeometry x="20" y="820" width="50" height="50" as="geometry" />
        </mxCell>
        <mxCell id="FpPtYlC5EsILxaDDrqei-121" style="edgeStyle=orthogonalEdgeStyle;rounded=0;orthogonalLoop=1;jettySize=auto;html=1;entryX=0;entryY=0.5;entryDx=0;entryDy=0;entryPerimeter=0;" parent="u9i59XWlAlZomTc7qoZ3-116" source="FpPtYlC5EsILxaDDrqei-120" target="FpPtYlC5EsILxaDDrqei-119" edge="1">
          <mxGeometry relative="1" as="geometry" />
        </mxCell>
        <mxCell id="QvwExv97PCOJJsuxtD2M-4" value="mematikan&amp;nbsp;&lt;br&gt;nontifikasi" style="verticalLabelPosition=middle;verticalAlign=middle;html=1;shape=trapezoid;perimeter=trapezoidPerimeter;whiteSpace=wrap;size=0.23;arcSize=10;flipV=1;labelPosition=center;align=center;" parent="u9i59XWlAlZomTc7qoZ3-116" vertex="1">
          <mxGeometry x="120" y="930" width="100" height="60" as="geometry" />
        </mxCell>
        <mxCell id="QvwExv97PCOJJsuxtD2M-6" value="memberikan makanan" style="strokeWidth=2;html=1;shape=mxgraph.flowchart.document2;whiteSpace=wrap;size=0.25;" parent="u9i59XWlAlZomTc7qoZ3-116" vertex="1">
          <mxGeometry x="120" y="1040" width="100" height="60" as="geometry" />
        </mxCell>
        <mxCell id="QvwExv97PCOJJsuxtD2M-7" style="edgeStyle=orthogonalEdgeStyle;rounded=0;orthogonalLoop=1;jettySize=auto;html=1;entryX=0.5;entryY=0;entryDx=0;entryDy=0;entryPerimeter=0;" parent="u9i59XWlAlZomTc7qoZ3-116" source="QvwExv97PCOJJsuxtD2M-4" target="QvwExv97PCOJJsuxtD2M-6" edge="1">
          <mxGeometry relative="1" as="geometry" />
        </mxCell>
        <mxCell id="QvwExv97PCOJJsuxtD2M-8" value="4" style="ellipse;whiteSpace=wrap;html=1;aspect=fixed;" parent="u9i59XWlAlZomTc7qoZ3-116" vertex="1">
          <mxGeometry x="20" y="1050" width="50" height="50" as="geometry" />
        </mxCell>
        <mxCell id="QvwExv97PCOJJsuxtD2M-9" style="edgeStyle=orthogonalEdgeStyle;rounded=0;orthogonalLoop=1;jettySize=auto;html=1;entryX=1;entryY=0.4;entryDx=0;entryDy=0;entryPerimeter=0;" parent="u9i59XWlAlZomTc7qoZ3-116" source="QvwExv97PCOJJsuxtD2M-6" target="QvwExv97PCOJJsuxtD2M-8" edge="1">
          <mxGeometry relative="1" as="geometry" />
        </mxCell>
        <mxCell id="FpPtYlC5EsILxaDDrqei-89" style="edgeStyle=orthogonalEdgeStyle;rounded=0;orthogonalLoop=1;jettySize=auto;html=1;entryX=0;entryY=0.25;entryDx=0;entryDy=0;entryPerimeter=0;" parent="u9i59XWlAlZomTc7qoZ3-113" source="FpPtYlC5EsILxaDDrqei-86" target="FpPtYlC5EsILxaDDrqei-88" edge="1">
          <mxGeometry relative="1" as="geometry" />
        </mxCell>
      </root>
    </mxGraphModel>
  </diagram>
</mxfile>
